<?xml version="1.0"?>
<svg xmlns="http://www.w3.org/2000/svg" xmlns:xlink="http://www.w3.org/1999/xlink" xmlns:svgjs="http://svgjs.com/svgjs" version="1.1" width="512" height="512" x="0" y="0" viewBox="0 0 511.99984 511" style="enable-background:new 0 0 512 512" xml:space="preserve" class=""><g><path xmlns="http://www.w3.org/2000/svg" d="m502.578125 365.441406-180.953125-326.226562c-13.503906-24.011719-38.117188-38.714844-65.726562-38.714844-27.609376 0-52.21875 14.707031-65.722657 38.714844l-180.753906 326.226562c-12.902344 23.410156-12.601563 51.320313 1.203125 74.429688 13.503906 23.109375 37.8125 36.914062 64.523438 36.914062h361.703124c26.710938 0 51.019532-13.804687 64.523438-36.914062 13.804688-23.109375 14.105469-51.019532 1.203125-74.429688zm0 0" fill="#fdbf00" data-original="#fdbf00" style=""/><path xmlns="http://www.w3.org/2000/svg" d="m501.375 439.871094c-13.503906 23.109375-37.8125 36.914062-64.523438 36.914062h-180.953124v-476.285156c27.609374 0 52.222656 14.707031 65.726562 38.714844l180.953125 326.226562c12.902344 23.410156 12.601563 51.320313-1.203125 74.429688zm0 0" fill="#ff9f00" data-original="#ff9f00" style="" class=""/><path xmlns="http://www.w3.org/2000/svg" d="m225.886719 341.734375h60.023437v60.023437h-60.023437zm0 0" fill="#523e6d" data-original="#523e6d" style=""/><path xmlns="http://www.w3.org/2000/svg" d="m255.898438 341.734375h30.011718v60.023437h-30.011718zm0 0" fill="#3e254c" data-original="#3e254c" style=""/><path xmlns="http://www.w3.org/2000/svg" d="m225.886719 131.652344h60.023437v150.058594h-60.023437zm0 0" fill="#523e6d" data-original="#523e6d" style=""/><path xmlns="http://www.w3.org/2000/svg" d="m255.898438 131.652344h30.011718v150.058594h-30.011718zm0 0" fill="#3e254c" data-original="#3e254c" style=""/></g></svg>
